<mxfile host="app.diagrams.net" modified="2023-11-06T12:02:57.365Z" agent="Mozilla/5.0 (Windows NT 10.0; Win64; x64) AppleWebKit/537.36 (KHTML, like Gecko) Chrome/119.0.0.0 Safari/537.36" etag="UY_GQwS4OapjGNLj_orC" version="22.0.8" type="github">
  <diagram name="Page-1" id="9f46799a-70d6-7492-0946-bef42562c5a5">
    <mxGraphModel dx="2226" dy="833" grid="1" gridSize="10" guides="1" tooltips="1" connect="1" arrows="1" fold="1" page="1" pageScale="1" pageWidth="1100" pageHeight="850" background="none" math="0" shadow="0">
      <root>
        <mxCell id="0" />
        <mxCell id="1" parent="0" />
        <mxCell id="EjDmYBnz29dwSShcpnPG-1" value="Actor" style="shape=umlActor;verticalLabelPosition=bottom;verticalAlign=top;html=1;fontSize=16;" vertex="1" parent="1">
          <mxGeometry x="-950" y="310" width="100" height="180" as="geometry" />
        </mxCell>
        <mxCell id="EjDmYBnz29dwSShcpnPG-3" value="" style="html=1;whiteSpace=wrap;shape=isoCube2;backgroundOutline=1;isoAngle=15;fontSize=16;" vertex="1" parent="1">
          <mxGeometry x="-280" y="330" width="140" height="160" as="geometry" />
        </mxCell>
        <mxCell id="EjDmYBnz29dwSShcpnPG-4" value="Databases" style="text;html=1;strokeColor=none;fillColor=none;align=center;verticalAlign=middle;whiteSpace=wrap;rounded=0;fontSize=16;" vertex="1" parent="1">
          <mxGeometry x="-230" y="340" width="40" height="50" as="geometry" />
        </mxCell>
        <mxCell id="EjDmYBnz29dwSShcpnPG-6" value="" style="ellipse;whiteSpace=wrap;html=1;fontSize=16;" vertex="1" parent="1">
          <mxGeometry x="-680" y="540" width="210" height="100" as="geometry" />
        </mxCell>
        <mxCell id="EjDmYBnz29dwSShcpnPG-5" value="UpDate,Delete" style="text;html=1;strokeColor=none;fillColor=none;align=center;verticalAlign=middle;whiteSpace=wrap;rounded=0;fontSize=16;" vertex="1" parent="1">
          <mxGeometry x="-670" y="540" width="190" height="100" as="geometry" />
        </mxCell>
        <mxCell id="EjDmYBnz29dwSShcpnPG-7" value="" style="ellipse;whiteSpace=wrap;html=1;fontSize=16;" vertex="1" parent="1">
          <mxGeometry x="-680" y="370" width="210" height="100" as="geometry" />
        </mxCell>
        <mxCell id="EjDmYBnz29dwSShcpnPG-8" value="CreateBoard" style="text;html=1;strokeColor=none;fillColor=none;align=center;verticalAlign=middle;whiteSpace=wrap;rounded=0;fontSize=16;" vertex="1" parent="1">
          <mxGeometry x="-670" y="370" width="190" height="100" as="geometry" />
        </mxCell>
        <mxCell id="EjDmYBnz29dwSShcpnPG-9" style="edgeStyle=none;curved=1;rounded=0;orthogonalLoop=1;jettySize=auto;html=1;exitX=1;exitY=0.25;exitDx=0;exitDy=0;entryX=0;entryY=0.25;entryDx=0;entryDy=0;fontSize=12;startSize=8;endSize=8;" edge="1" parent="1" source="EjDmYBnz29dwSShcpnPG-4" target="EjDmYBnz29dwSShcpnPG-4">
          <mxGeometry relative="1" as="geometry" />
        </mxCell>
        <mxCell id="EjDmYBnz29dwSShcpnPG-10" value="" style="ellipse;whiteSpace=wrap;html=1;fontSize=16;" vertex="1" parent="1">
          <mxGeometry x="-680" y="180" width="210" height="100" as="geometry" />
        </mxCell>
        <mxCell id="EjDmYBnz29dwSShcpnPG-11" value="GetBoard" style="text;html=1;strokeColor=none;fillColor=none;align=center;verticalAlign=middle;whiteSpace=wrap;rounded=0;fontSize=16;" vertex="1" parent="1">
          <mxGeometry x="-670" y="180" width="190" height="100" as="geometry" />
        </mxCell>
        <mxCell id="EjDmYBnz29dwSShcpnPG-13" value="" style="shape=flexArrow;endArrow=classic;html=1;rounded=0;fontSize=12;startSize=8;endSize=8;curved=1;" edge="1" parent="1">
          <mxGeometry width="50" height="50" relative="1" as="geometry">
            <mxPoint x="-830" y="340" as="sourcePoint" />
            <mxPoint x="-700" y="270" as="targetPoint" />
          </mxGeometry>
        </mxCell>
        <mxCell id="EjDmYBnz29dwSShcpnPG-14" value="" style="shape=flexArrow;endArrow=classic;html=1;rounded=0;fontSize=12;startSize=8;endSize=8;curved=1;" edge="1" parent="1">
          <mxGeometry width="50" height="50" relative="1" as="geometry">
            <mxPoint x="-840" y="510" as="sourcePoint" />
            <mxPoint x="-699.9999999999998" y="590" as="targetPoint" />
          </mxGeometry>
        </mxCell>
        <mxCell id="EjDmYBnz29dwSShcpnPG-15" value="" style="shape=flexArrow;endArrow=classic;html=1;rounded=0;fontSize=12;startSize=8;endSize=8;curved=1;" edge="1" parent="1">
          <mxGeometry width="50" height="50" relative="1" as="geometry">
            <mxPoint x="-840" y="410" as="sourcePoint" />
            <mxPoint x="-720" y="410" as="targetPoint" />
          </mxGeometry>
        </mxCell>
        <mxCell id="EjDmYBnz29dwSShcpnPG-20" value="" style="shape=flexArrow;endArrow=classic;html=1;rounded=0;fontSize=12;startSize=8;endSize=8;curved=1;entryX=0;entryY=0;entryDx=0;entryDy=126.38897372878375;entryPerimeter=0;" edge="1" parent="1" source="EjDmYBnz29dwSShcpnPG-6" target="EjDmYBnz29dwSShcpnPG-3">
          <mxGeometry width="50" height="50" relative="1" as="geometry">
            <mxPoint x="-420" y="440" as="sourcePoint" />
            <mxPoint x="-279.9999999999998" y="520" as="targetPoint" />
          </mxGeometry>
        </mxCell>
        <mxCell id="EjDmYBnz29dwSShcpnPG-22" value="" style="shape=flexArrow;endArrow=classic;html=1;rounded=0;fontSize=12;startSize=8;endSize=8;curved=1;entryX=1;entryY=0.5;entryDx=0;entryDy=0;exitX=0.247;exitY=0.935;exitDx=0;exitDy=0;exitPerimeter=0;" edge="1" parent="1" source="EjDmYBnz29dwSShcpnPG-3" target="EjDmYBnz29dwSShcpnPG-6">
          <mxGeometry width="50" height="50" relative="1" as="geometry">
            <mxPoint x="-820" y="530" as="sourcePoint" />
            <mxPoint x="-679.9999999999998" y="610" as="targetPoint" />
          </mxGeometry>
        </mxCell>
        <mxCell id="EjDmYBnz29dwSShcpnPG-23" value="" style="shape=flexArrow;endArrow=classic;html=1;rounded=0;fontSize=12;startSize=8;endSize=8;curved=1;exitX=1;exitY=0.25;exitDx=0;exitDy=0;" edge="1" parent="1" source="EjDmYBnz29dwSShcpnPG-8" target="EjDmYBnz29dwSShcpnPG-3">
          <mxGeometry width="50" height="50" relative="1" as="geometry">
            <mxPoint x="-520" y="410" as="sourcePoint" />
            <mxPoint x="-301" y="310" as="targetPoint" />
          </mxGeometry>
        </mxCell>
        <mxCell id="EjDmYBnz29dwSShcpnPG-24" value="" style="shape=flexArrow;endArrow=classic;html=1;rounded=0;fontSize=12;startSize=8;endSize=8;curved=1;entryX=1.026;entryY=0.661;entryDx=0;entryDy=0;entryPerimeter=0;exitX=0.018;exitY=0.685;exitDx=0;exitDy=0;exitPerimeter=0;" edge="1" parent="1" source="EjDmYBnz29dwSShcpnPG-3" target="EjDmYBnz29dwSShcpnPG-8">
          <mxGeometry width="50" height="50" relative="1" as="geometry">
            <mxPoint x="-266" y="334" as="sourcePoint" />
            <mxPoint x="-491" y="444" as="targetPoint" />
          </mxGeometry>
        </mxCell>
        <mxCell id="EjDmYBnz29dwSShcpnPG-25" value="" style="shape=flexArrow;endArrow=classic;html=1;rounded=0;fontSize=12;startSize=8;endSize=8;curved=1;entryX=0.286;entryY=0.063;entryDx=0;entryDy=0;entryPerimeter=0;" edge="1" parent="1" target="EjDmYBnz29dwSShcpnPG-3">
          <mxGeometry width="50" height="50" relative="1" as="geometry">
            <mxPoint x="-450" y="220" as="sourcePoint" />
            <mxPoint x="-281" y="130" as="targetPoint" />
          </mxGeometry>
        </mxCell>
        <mxCell id="EjDmYBnz29dwSShcpnPG-26" value="" style="shape=flexArrow;endArrow=classic;html=1;rounded=0;fontSize=12;startSize=8;endSize=8;curved=1;entryX=1;entryY=0.5;entryDx=0;entryDy=0;" edge="1" parent="1" source="EjDmYBnz29dwSShcpnPG-3">
          <mxGeometry width="50" height="50" relative="1" as="geometry">
            <mxPoint x="-246" y="154" as="sourcePoint" />
            <mxPoint x="-471" y="264" as="targetPoint" />
          </mxGeometry>
        </mxCell>
        <mxCell id="EjDmYBnz29dwSShcpnPG-27" value="contents" style="text;html=1;strokeColor=none;fillColor=none;align=center;verticalAlign=middle;whiteSpace=wrap;rounded=0;fontSize=16;" vertex="1" parent="1">
          <mxGeometry x="-430" y="220" width="200" height="45" as="geometry" />
        </mxCell>
        <mxCell id="EjDmYBnz29dwSShcpnPG-30" value="title,password,&lt;br&gt;username,contents" style="text;html=1;strokeColor=none;fillColor=none;align=center;verticalAlign=middle;whiteSpace=wrap;rounded=0;fontSize=16;" vertex="1" parent="1">
          <mxGeometry x="-490" y="350" width="200" height="45" as="geometry" />
        </mxCell>
        <mxCell id="EjDmYBnz29dwSShcpnPG-34" value="password,&lt;br&gt;contents" style="text;html=1;strokeColor=none;fillColor=none;align=center;verticalAlign=middle;whiteSpace=wrap;rounded=0;fontSize=16;" vertex="1" parent="1">
          <mxGeometry x="-410" y="560" width="200" height="45" as="geometry" />
        </mxCell>
      </root>
    </mxGraphModel>
  </diagram>
</mxfile>
